<?xml version="1.0" encoding="utf-8"?>
<!-- Generator: Adobe Illustrator 26.0.3, SVG Export Plug-In . SVG Version: 6.00 Build 0)  -->
<svg version="1.1" id="Layer_1" xmlns="http://www.w3.org/2000/svg" xmlns:xlink="http://www.w3.org/1999/xlink" x="0px" y="0px"
	 viewBox="0 0 453.59 80.62" style="enable-background:new 0 0 453.59 80.62;" xml:space="preserve">
<style type="text/css">
	.st0{fill:#FFFFFF;}
</style>
<path class="st0" d="M100.71,26.87h26.06v0C126.77,12.03,114.74,0,99.89,0H26.87C12.03,0,0,12.03,0,26.87v0
	c0,14.84,12.03,26.87,26.87,26.87H0.81v0c0,14.84,12.03,26.87,26.87,26.87h73.02c14.84,0,26.87-12.03,26.87-26.87v0
	C127.58,38.9,115.55,26.87,100.71,26.87z M63.79,54.31c-1.7-10.93-3.07-12.3-14-14c10.93-1.7,12.3-3.07,14-14
	c1.7,10.93,3.07,12.3,14,14C66.86,42.01,65.49,43.38,63.79,54.31z"/>
<g>
	<g>
		<polygon class="st0" points="158.94,18.58 143.9,18.58 143.9,6.73 140.08,6.73 140.08,34.37 143.9,34.37 143.9,21.92 
			158.94,21.92 158.94,34.37 162.8,34.37 162.8,6.73 158.94,6.73 		"/>
		<path class="st0" d="M195.59,7.82c-2.06-1.05-4.52-1.57-7.39-1.57c-2.88,0-5.34,0.52-7.39,1.57c-2.05,1.05-3.64,2.63-4.75,4.74
			c-1.12,2.11-1.67,4.77-1.67,8c0,3.2,0.56,5.86,1.67,7.98c1.11,2.12,2.7,3.71,4.75,4.75c2.06,1.05,4.52,1.57,7.39,1.57
			c2.87,0,5.34-0.52,7.39-1.57c2.05-1.05,3.64-2.63,4.75-4.75c1.11-2.12,1.67-4.78,1.67-7.98c0-3.22-0.56-5.89-1.67-8
			C199.23,10.44,197.64,8.87,195.59,7.82z M198.02,21c0,1.83-0.23,3.41-0.69,4.74c-0.46,1.33-1.11,2.43-1.95,3.3
			s-1.88,1.51-3.1,1.91c-1.22,0.4-2.59,0.6-4.09,0.6c-1.53,0-2.9-0.2-4.11-0.6c-1.21-0.4-2.24-1.04-3.1-1.91
			c-0.86-0.87-1.51-1.97-1.95-3.3c-0.44-1.33-0.67-2.91-0.67-4.74v-0.85c0-1.85,0.22-3.45,0.67-4.77c0.44-1.33,1.09-2.43,1.95-3.3
			c0.86-0.87,1.89-1.51,3.1-1.91c1.21-0.4,2.58-0.6,4.11-0.6c1.5,0,2.87,0.2,4.09,0.6c1.22,0.4,2.26,1.04,3.1,1.91
			c0.85,0.87,1.5,1.97,1.95,3.3c0.46,1.33,0.69,2.92,0.69,4.77V21z"/>
		<path class="st0" d="M232.22,21.18c-0.87-0.58-1.85-1.06-2.94-1.45c-1.09-0.39-2.2-0.74-3.34-1.05c-1.14-0.31-2.26-0.61-3.37-0.91
			c-1.1-0.29-2.08-0.62-2.94-0.99c-0.86-0.36-1.55-0.83-2.08-1.39c-0.52-0.56-0.79-1.26-0.79-2.1c0-0.73,0.26-1.38,0.79-1.95
			c0.52-0.58,1.32-1.02,2.4-1.33c1.07-0.31,2.42-0.46,4.03-0.46c1.24,0,2.34,0.17,3.32,0.52c0.98,0.35,1.75,0.85,2.32,1.49
			c0.56,0.65,0.85,1.42,0.85,2.34v0.6h3.79v-0.48c0-1.37-0.27-2.54-0.81-3.51c-0.54-0.97-1.28-1.77-2.24-2.4
			c-0.95-0.63-2.05-1.1-3.3-1.41c-1.25-0.31-2.6-0.46-4.05-0.46c-1.77,0-3.35,0.17-4.71,0.5c-1.37,0.34-2.52,0.82-3.45,1.45
			c-0.93,0.63-1.63,1.4-2.09,2.32c-0.47,0.91-0.71,1.95-0.71,3.1c0,1.24,0.26,2.28,0.79,3.14c0.52,0.86,1.22,1.58,2.08,2.16
			c0.86,0.58,1.83,1.06,2.92,1.45c1.09,0.39,2.21,0.73,3.36,1.03c1.16,0.3,2.28,0.6,3.37,0.91c1.09,0.31,2.06,0.66,2.92,1.05
			c0.86,0.39,1.55,0.89,2.08,1.49c0.52,0.6,0.79,1.36,0.79,2.28c0,0.73-0.15,1.34-0.46,1.83c-0.31,0.5-0.73,0.91-1.25,1.25
			c-0.52,0.34-1.12,0.6-1.77,0.81c-0.66,0.2-1.34,0.34-2.06,0.42c-0.71,0.08-1.39,0.12-2.03,0.12c-1.45,0-2.75-0.18-3.89-0.54
			c-1.14-0.36-2.04-0.92-2.68-1.67c-0.65-0.75-0.97-1.67-0.97-2.74c0-0.13,0.01-0.29,0.02-0.46c0.01-0.17,0.02-0.3,0.02-0.38h-3.87
			c0,0.13-0.01,0.27-0.02,0.4c-0.01,0.14-0.02,0.27-0.02,0.4c0,1.53,0.31,2.82,0.95,3.87c0.63,1.05,1.48,1.9,2.56,2.56
			c1.07,0.66,2.3,1.14,3.69,1.43c1.38,0.29,2.83,0.44,4.33,0.44c2.23,0,4.19-0.28,5.88-0.85c1.69-0.56,3.02-1.46,3.99-2.68
			c0.97-1.22,1.45-2.81,1.45-4.77c0-1.26-0.26-2.33-0.77-3.2C233.78,22.48,233.09,21.75,232.22,21.18z"/>
		<path class="st0" d="M265.16,7.8c-1.26-0.71-2.85-1.07-4.75-1.07h-13.66v27.64h3.83v-10.6h9.79c1.77,0,3.3-0.36,4.57-1.09
			c1.28-0.73,2.26-1.74,2.96-3.04c0.7-1.3,1.05-2.8,1.05-4.49c0-1.67-0.32-3.13-0.95-4.39C267.37,9.5,266.42,8.51,265.16,7.8z
			 M263.73,19.06c-0.9,0.94-2.1,1.41-3.61,1.41h-9.55V10.03h9.55c1.1,0,2.01,0.21,2.74,0.62c0.73,0.42,1.28,1,1.65,1.75
			c0.38,0.75,0.56,1.68,0.56,2.78C265.08,16.83,264.63,18.12,263.73,19.06z"/>
		<rect x="279.59" y="6.73" class="st0" width="3.83" height="27.64"/>
		<polygon class="st0" points="293.69,10.07 303.16,10.07 303.16,34.37 306.99,34.37 306.99,10.07 316.54,10.07 316.54,6.73 
			293.69,6.73 		"/>
		<path class="st0" d="M331.17,6.73l-10.92,27.64h3.95l2.66-6.85h13.46l2.7,6.85h4.15L336.2,6.73H331.17z M328.1,24.26l3.39-8.66
			c0.16-0.46,0.36-1.01,0.6-1.67c0.24-0.66,0.48-1.34,0.73-2.03s0.46-1.32,0.65-1.85h0.24c0.16,0.46,0.34,0.96,0.52,1.51
			c0.19,0.55,0.38,1.09,0.56,1.61c0.19,0.52,0.36,1,0.52,1.43c0.16,0.43,0.28,0.77,0.36,1.01l3.34,8.66H328.1z"/>
		<polygon class="st0" points="360.79,6.73 356.96,6.73 356.96,34.37 374.53,34.37 374.53,31.03 360.79,31.03 		"/>
		<rect x="384.6" y="6.73" class="st0" width="3.83" height="27.64"/>
		<polygon class="st0" points="398.71,10.07 408.18,10.07 408.18,34.37 412.01,34.37 412.01,10.07 421.56,10.07 421.56,6.73 
			398.71,6.73 		"/>
		<polygon class="st0" points="441.02,19.5 440.82,19.5 432.4,6.73 428,6.73 438.88,22.89 438.88,34.37 442.75,34.37 442.75,22.89 
			453.59,6.73 449.4,6.73 		"/>
	</g>
	<g>
		<path class="st0" d="M153.09,62.61h9.75v0.48c0,1.8-0.33,3.29-0.99,4.47c-0.66,1.18-1.66,2.06-3,2.64
			c-1.34,0.58-3.05,0.87-5.12,0.87c-2.04,0-3.79-0.36-5.24-1.07c-1.45-0.71-2.56-1.85-3.32-3.41c-0.77-1.56-1.15-3.59-1.15-6.09
			v-0.85c0-1.85,0.23-3.45,0.69-4.8c0.46-1.34,1.11-2.44,1.97-3.3c0.86-0.86,1.92-1.49,3.18-1.89c1.26-0.4,2.7-0.6,4.31-0.6
			c1.18,0,2.3,0.11,3.35,0.34c1.05,0.23,1.97,0.61,2.76,1.15c0.79,0.54,1.4,1.23,1.83,2.08c0.43,0.85,0.64,1.86,0.64,3.04h3.91
			c0-1.69-0.3-3.16-0.91-4.39c-0.6-1.24-1.46-2.26-2.58-3.08c-1.12-0.82-2.44-1.43-3.97-1.83s-3.24-0.6-5.12-0.6
			c-3.01,0-5.56,0.53-7.66,1.59c-2.09,1.06-3.68,2.65-4.75,4.78c-1.07,2.12-1.61,4.77-1.61,7.94c0,4.86,1.16,8.46,3.49,10.8
			c2.32,2.34,5.71,3.51,10.17,3.51c1.34,0,2.61-0.13,3.81-0.4c1.2-0.27,2.29-0.7,3.28-1.29c0.99-0.59,1.85-1.36,2.58-2.3l0.4,3.51
			h2.9V59.34h-13.62V62.61z"/>
		<path class="st0" d="M201.09,59.26c0.86-1.37,1.29-3.01,1.29-4.92c0-1.58-0.31-2.99-0.93-4.21c-0.62-1.22-1.55-2.18-2.8-2.86
			c-1.25-0.68-2.81-1.03-4.69-1.03h-14.55v27.64h3.83v-11h10.52l5.4,11h4.19l-5.8-11.69C199.04,61.61,200.23,60.63,201.09,59.26z
			 M193.59,59.62h-10.36V49.55h10.36c1.07,0,1.97,0.2,2.7,0.58c0.73,0.39,1.28,0.93,1.65,1.63c0.38,0.7,0.56,1.56,0.56,2.58
			c0,1.64-0.44,2.93-1.31,3.87C196.32,59.15,195.12,59.62,193.59,59.62z"/>
		<path class="st0" d="M234.35,47.33c-2.06-1.05-4.52-1.57-7.39-1.57c-2.88,0-5.34,0.52-7.39,1.57c-2.05,1.05-3.64,2.63-4.75,4.74
			c-1.12,2.11-1.67,4.77-1.67,8c0,3.2,0.56,5.86,1.67,7.98c1.11,2.12,2.7,3.71,4.75,4.75c2.06,1.05,4.52,1.57,7.39,1.57
			c2.87,0,5.34-0.52,7.39-1.57c2.05-1.05,3.64-2.63,4.75-4.75s1.67-4.78,1.67-7.98c0-3.22-0.56-5.89-1.67-8
			C237.99,49.96,236.41,48.38,234.35,47.33z M236.79,60.51c0,1.83-0.23,3.41-0.69,4.74c-0.46,1.33-1.11,2.43-1.95,3.3
			s-1.88,1.51-3.1,1.91c-1.22,0.4-2.59,0.6-4.09,0.6c-1.53,0-2.9-0.2-4.11-0.6c-1.21-0.4-2.24-1.04-3.1-1.91
			c-0.86-0.87-1.51-1.97-1.95-3.3c-0.44-1.33-0.67-2.91-0.67-4.74v-0.85c0-1.85,0.22-3.45,0.67-4.77c0.44-1.33,1.09-2.43,1.95-3.3
			c0.86-0.87,1.89-1.51,3.1-1.91c1.21-0.4,2.58-0.6,4.11-0.6c1.5,0,2.87,0.2,4.09,0.6c1.22,0.4,2.26,1.04,3.1,1.91
			c0.85,0.87,1.5,1.97,1.95,3.3c0.46,1.33,0.69,2.92,0.69,4.77V60.51z"/>
		<path class="st0" d="M271.16,63.82c0,2.42-0.67,4.23-2.02,5.44c-1.34,1.21-3.21,1.81-5.6,1.81c-2.37,0-4.2-0.6-5.5-1.81
			s-1.95-3.02-1.95-5.44V46.25h-3.83v17.17c0,2.55,0.45,4.64,1.35,6.27c0.9,1.63,2.2,2.82,3.89,3.57c1.69,0.75,3.71,1.13,6.05,1.13
			c2.36,0,4.4-0.38,6.11-1.13c1.71-0.75,3.01-1.94,3.93-3.57c0.91-1.62,1.37-3.71,1.37-6.27V46.25h-3.79V63.82z"/>
		<path class="st0" d="M306.26,47.31c-1.26-0.71-2.85-1.07-4.75-1.07h-13.66v27.64h3.83v-10.6h9.79c1.77,0,3.3-0.36,4.57-1.09
			c1.28-0.73,2.26-1.74,2.96-3.04c0.7-1.3,1.05-2.8,1.05-4.49c0-1.67-0.32-3.13-0.95-4.39C308.47,49.01,307.53,48.03,306.26,47.31z
			 M304.83,58.58c-0.9,0.94-2.1,1.41-3.61,1.41h-9.55V49.55h9.55c1.1,0,2.01,0.21,2.74,0.62c0.73,0.42,1.28,1,1.65,1.75
			c0.38,0.75,0.56,1.68,0.56,2.78C306.18,56.35,305.73,57.64,304.83,58.58z"/>
		<polygon class="st0" points="319.33,47.69 321.68,47.69 321.68,53.37 323.56,53.37 323.56,47.69 325.91,47.69 325.91,46.14 
			319.33,46.14 		"/>
		<path class="st0" d="M331.46,49.35c-0.04,0.18-0.09,0.37-0.14,0.57c-0.05,0.21-0.09,0.4-0.14,0.59c-0.04,0.19-0.08,0.35-0.11,0.48
			H331c-0.04-0.17-0.08-0.36-0.13-0.57c-0.05-0.21-0.1-0.41-0.15-0.61s-0.09-0.35-0.13-0.46l-0.87-3.22h-2.75v7.23h1.72v-3.09
			c0-0.25,0-0.52-0.01-0.81c-0.01-0.28-0.01-0.56-0.02-0.82c-0.01-0.26-0.01-0.49-0.02-0.67h0.08c0.03,0.14,0.08,0.31,0.12,0.52
			c0.05,0.2,0.09,0.4,0.14,0.6c0.05,0.2,0.09,0.36,0.13,0.51l1.06,3.76h1.52l1.05-3.76c0.04-0.15,0.09-0.34,0.14-0.55
			c0.05-0.21,0.1-0.42,0.15-0.62c0.05-0.2,0.08-0.35,0.1-0.46h0.08c0,0.11,0,0.29-0.01,0.55c-0.01,0.25-0.01,0.53-0.02,0.84
			c0,0.31-0.01,0.61-0.01,0.92v3.09h1.83v-7.23h-2.67L331.46,49.35z"/>
	</g>
</g>
</svg>
